# xmcd
#
# Track frame offsets: 
#        187
#        18630
#        32955
#        49455
#        66417
#        84405
#        100755
#        119430
#        136380
#        155210
#        170580
#        188655
#        205032
#        221360
#        238782
#
# Disc length: 3394 seconds
#
# Revision: 0
# Processed by: cddbd v1.4PL0 Copyright (c) Steve Scherf et al.
# Submitted via: ExactAudioCopy v0.90b3
#
DISCID=dc0d400f
DTITLE=Alabama - The Edited Singles (1980-1990)
DYEAR=1900
DGENRE=Country
TTITLE0=My Home's In Alabama
TTITLE1=Why Lady Why
TTITLE2=Mountain Music
TTITLE3=Take Me Down
TTITLE4=Dixieland Delight
TTITLE5=The Closer You Get
TTITLE6=Roll On (Eighteen Wheeler) (With Effects)
TTITLE7=Roll On (Eighteen Wheeler) (No Effects)
TTITLE8=I'm Not That Way Anymore
TTITLE9=If You're Gonna Play In Texas (You Gotta Have A Fiddle In The 
TTITLE9=Band)
TTITLE10=(There's A) Fire In The Night
TTITLE11=She And I
TTITLE12=Fallin' Again
TTITLE13=Pass It On Down
TTITLE14=Jukebox In My Mind
EXTD=
EXTT0=
EXTT1=
EXTT2=
EXTT3=
EXTT4=
EXTT5=
EXTT6=
EXTT7=
EXTT8=
EXTT9=
EXTT10=
EXTT11=
EXTT12=
EXTT13=
EXTT14=
PLAYORDER=
